<svg xmlns="http://www.w3.org/2000/svg" viewBox="0 0 96 96">
  <!-- Clock border -->
  <circle cx="48" cy="48" r="47" fill="none" stroke="black" stroke-width="2"/>

  <!-- Extra long ticks -->
  <g stroke="black" stroke-width="2">
    <line x1="48" y1="0" x2="48" y2="18"/>
    <line x1="72.7" y1="7.3" x2="63.3" y2="16.7"/>
    <line x1="88.7" y1="23.3" x2="79.3" y2="32.7"/>
    <line x1="96" y1="48" x2="78" y2="48"/>
    <line x1="88.7" y1="72.7" x2="79.3" y2="63.3"/>
    <line x1="72.7" y1="88.7" x2="63.3" y2="79.3"/>
    <line x1="48" y1="96" x2="48" y2="78"/>
    <line x1="23.3" y1="88.7" x2="32.7" y2="79.3"/>
    <line x1="7.3" y1="72.7" x2="16.7" y2="63.3"/>
    <line x1="0" y1="48" x2="18" y2="48"/>
    <line x1="7.3" y1="23.3" x2="16.7" y2="32.7"/>
    <line x1="23.3" y1="7.3" x2="32.7" y2="16.7"/>
  </g>

  <!-- Even smaller original icon -->
  <g transform="translate(18,18) scale(0.625)">
    <path fill="#000" d="M78.99,21.9l-1.73,6.24c-.09.33-.44.52-.77.42l-28.11-8.71c-.19-.06-.41-.02-.56.11l-28.95,23.22c-.08.07-.18.11-.29.13l-17.25,2.66c-.31.05-.53.32-.52.63l.11,2.47c.01.31.26.56.57.58l20.08,1.23c.11,0,.22-.02.31-.06l14.64-7.4c.21-.11.46-.08.64.06l9.37,7.03c.16.12.25.3.24.49l-.09,11.65c0,.13.04.25.11.35l14.74,21.15c.11.16.3.26.5.26h5.03c.46,0,.76-.5.54-.9l-10.87-19.92c-.1-.18-.1-.4,0-.58l5.51-10.48c.06-.11.15-.2.26-.26l19.56-9.92c.2-.1.43-.09.62.04l5.6,3.73c.1.07.22.1.34.1h5.15c.48,0,.77-.52.52-.93l-14.2-23.52c-.28-.46-.97-.36-1.11.15Z"/>
  </g>
</svg>
